<svg height="243.7" id="svg2" version="1.1" viewBox="0 0 632.58667 376.05334" width="410" xml:space="preserve" xmlns="http://www.w3.org/2000/svg" xmlns:cc="http://creativecommons.org/ns#" xmlns:dc="http://purl.org/dc/elements/1.1/" xmlns:rdf="http://www.w3.org/1999/02/22-rdf-syntax-ns#" xmlns:svg="http://www.w3.org/2000/svg"><metadata id="metadata8"><rdf:rdf><cc:work rdf:about=""><dc:format>image/svg+xml</dc:format><dc:type rdf:resource="http://purl.org/dc/dcmitype/StillImage"></dc:type></cc:work></rdf:rdf></metadata><defs id="defs6"></defs><g id="g10" transform="matrix(1.3333333,0,0,-1.3333333,0,376.05333)"><g id="g12" transform="scale(0.1)"><path d="M 355.828,0 C 244.441,0 156.297,33.8008 93.8633,100.469 31.5781,166.961 0,262.93 0,385.719 c 0,119 33.1758,212.851 98.5859,278.922 65.4611,66.129 152.6561,99.64 259.1871,99.64 84.997,0 157.957,-18.633 216.852,-55.371 l 6.34,-3.961 -46.149,-139.199 -9.906,5.16 c -57.293,29.899 -111.117,45.059 -159.984,45.059 -55.086,0 -97.192,-19.028 -128.727,-58.18 C 204.617,518.551 188.598,460 188.598,383.762 c 0,-77.141 15.812,-136.391 47.023,-176.051 31.086,-39.531 74.016,-58.75 131.25,-58.75 60.262,0 119.094,18.09 174.859,53.738 l 12.68,8.11 18.856,-150.0668 -4.895,-3.2734 C 537.766,37.0586 505.566,22.1992 472.664,13.3203 439.969,4.49219 400.656,0 355.828,0" id="path14" style="fill:#4868bb;fill-opacity:1;fill-rule:nonzero;stroke:none"></path><path d="M 1301.04,13.6484 H 1111.79 V 456.539 c 0,56.25 -8.85,97.731 -26.29,123.301 -16.89,24.75 -45.36,36.781 -87.012,36.781 -36.039,0 -68.398,-9.199 -96.152,-27.383 C 874.738,571.211 853.715,547.75 839.813,519.5 829.82,480.719 824.762,429.379 824.762,366.871 V 13.6484 H 635.52 V 1009.29 l 189.242,12.29 V 805.449 c 0,-10.008 -0.66,-37.98 -1.949,-83.109 -0.516,-18.121 -0.934,-32.66 -1.254,-43.649 56.39,56.809 129.765,85.59 218.521,85.59 82,0 146.73,-24.051 192.35,-71.472 45.52,-47.329 68.61,-120.477 68.61,-217.418 V 13.6484" id="path16" style="fill:#4868bb;fill-opacity:1;fill-rule:nonzero;stroke:none"></path><path d="m 1557.29,462.141 h 291.89 c -1.37,50.879 -13.89,90.621 -37.25,118.211 -24.76,29.207 -58.31,43.41 -102.56,43.41 -41.49,0 -75.52,-13.953 -104.04,-42.672 -26.62,-26.809 -42.76,-66.801 -48.04,-118.949 z M 1736.01,0 c -116.93,0 -209.41,34.3086 -274.86,101.98 -65.36,67.571 -98.51,161.93 -98.51,280.489 0,115.371 31.21,208.66 92.75,277.293 61.79,68.898 147.01,104.058 253.29,104.519 100.74,0 180.2,-32.133 236.2,-95.48 55.69,-63.02 83.93,-147.559 83.93,-251.25 0,-7.403 -0.11,-19.352 -0.33,-35.86 -0.22,-16.41 -0.32,-28.492 -0.32,-36.261 v -9.508 h -474.59 c 3.12,-59.301 20.56,-106 51.9,-138.91 32.83,-34.473 78.93,-51.953 137.04,-51.953 75.96,0 150.03,20.14 220.12,59.851 l 11.45,6.469 27.89,-140.2071 -5.61,-3.4727 C 1923.7,22.7813 1836.1,0 1736.01,0" id="path18" style="fill:#4868bb;fill-opacity:1;fill-rule:nonzero;stroke:none"></path><path d="m 2332.55,0.648438 c -106.46,0 -193.08,18.562462 -257.46,55.171862 l -5.6,3.1797 20.29,148.039 12.1,-6.609 c 27.84,-15.18 63.91,-29.02 107.17,-41.11 43.11,-12.05 82.92,-18.148 118.29,-18.148 35.6,0 63.43,6.558 82.75,19.5 18.43,12.328 27.56,30.098 27.95,54.297 0,21.519 -8.38,38.133 -25.63,50.64 -18.92,13.723 -56.11,31.25 -110.56,52.102 -19,6.898 -31.41,11.469 -37.06,13.66 -66.92,25.949 -115.98,55.508 -145.85,87.84 -30.57,33.078 -46.06,78.211 -46.06,134.141 0,67.859 25.02,120.707 74.36,157.089 48.46,35.739 116.49,53.84 202.19,53.84 92.01,0 174.1,-17.609 243.99,-52.32 l 7.58,-3.762 -48.61,-135.359 -9.43,4.379 c -66.45,30.89 -130.46,46.543 -190.28,46.543 -32.31,0 -57.66,-5.34 -75.38,-15.883 -16.33,-9.719 -24.27,-24.16 -24.27,-44.137 0,-18.863 7.75,-33.183 23.69,-43.73 17.92,-11.883 53.97,-27.832 107.19,-47.41 0.51,-0.082 3.8,-1.102 16.85,-5.832 9.71,-3.528 17.2,-6.399 22.49,-8.598 66.15,-24.09 115.93,-53.672 147.57,-87.774 32.3,-34.796 48.67,-80.578 48.67,-136.078 C 2619.04,160.141 2593.38,101.93 2543.2,61.25 2493.61,21.0391 2422.73,0.648438 2332.55,0.648438" id="path20" style="fill:#4868bb;fill-opacity:1;fill-rule:nonzero;stroke:none"></path><path d="m 2919.31,0.648438 c -106.44,0 -193.06,18.562462 -257.45,55.171862 l -5.59,3.1797 20.29,148.039 12.1,-6.609 c 27.84,-15.18 63.91,-29.02 107.17,-41.11 43.11,-12.05 82.92,-18.148 118.29,-18.148 35.58,0 63.43,6.558 82.75,19.5 18.43,12.328 27.56,30.098 27.95,54.297 0,21.519 -8.39,38.133 -25.63,50.64 -18.93,13.723 -56.12,31.25 -110.56,52.102 -19,6.898 -31.41,11.469 -37.06,13.66 -66.91,25.949 -115.99,55.508 -145.85,87.84 -30.57,33.078 -46.06,78.211 -46.06,134.141 0,67.859 25.01,120.707 74.36,157.089 48.46,35.739 116.48,53.84 202.19,53.84 92.01,0 174.1,-17.609 243.99,-52.32 l 7.58,-3.762 -48.61,-135.359 -9.45,4.379 c -66.43,30.89 -130.45,46.543 -190.26,46.543 -32.31,0 -57.67,-5.34 -75.38,-15.883 -16.34,-9.719 -24.27,-24.16 -24.27,-44.137 0,-18.863 7.75,-33.183 23.68,-43.73 17.92,-11.883 53.98,-27.832 107.2,-47.41 0.51,-0.082 3.8,-1.102 16.85,-5.832 9.7,-3.528 17.19,-6.399 22.49,-8.598 66.15,-24.09 115.92,-53.672 147.56,-87.774 32.31,-34.796 48.68,-80.578 48.68,-136.078 -0.45,-74.179 -26.12,-132.39 -76.29,-173.07 C 3080.39,21.0391 3009.51,0.648438 2919.31,0.648438" id="path22" style="fill:#4868bb;fill-opacity:1;fill-rule:nonzero;stroke:none"></path><path d="m 3804.2,12.2305 h -515.37 l -3.84,138.5195 271.53,307.32 c 32.72,34.989 56.75,67.391 71.59,96.512 14.54,28.527 21.92,59.039 21.92,90.707 0,34.32 -10.78,60.82 -32.93,81.012 -22.1,20.14 -51.81,30.347 -88.32,30.347 -34.7,0 -69.43,-6.527 -103.25,-19.418 -33.8,-12.878 -61.83,-29.191 -83.34,-48.46 l -10.33,-9.258 -50.81,134.179 4.94,4.348 c 59.62,52.473 144.24,79.082 251.51,79.082 85.54,0 155.52,-21.941 207.99,-65.23 52.99,-43.731 79.87,-106.121 79.87,-185.442 0,-55.699 -15.01,-109.519 -44.6,-159.969 -29.1,-49.621 -69.35,-101.25 -119.6,-153.449 l -176.6,-187.289 h 331.83 L 3804.2,12.2305" id="path24" style="fill:#4868bb;fill-opacity:1;fill-rule:nonzero;stroke:none"></path><path d="m 4039.54,334.59 h 206.87 V 685.422 Z M 4419.42,12.2305 H 4246.41 V 201.102 H 3862.29 V 316.75 l 348.82,561.781 h 208.31 V 335.172 h 105.24 l -8.79,-134.07 h -96.45 V 12.2305" id="path26" style="fill:#4868bb;fill-opacity:1;fill-rule:nonzero;stroke:none"></path><path d="m 4631.8,785.621 h 10.62 c 13.53,0 21.65,6.027 21.65,15.399 0,9.789 -7.49,14.789 -19.56,14.789 -7.08,0 -11.05,-0.418 -12.71,-0.84 z m -25.6,47.051 c 8.32,1.25 21.02,2.5 35.59,2.5 17.28,0 28.94,-2.922 37.06,-9.16 6.66,-5.203 10.83,-12.703 10.83,-23.121 0,-15.821 -10.62,-24.352 -21.24,-27.899 v -0.41 c 8.75,-2.703 13.12,-9.582 15.82,-19.363 3.13,-10.821 7.92,-26.649 10.63,-31.227 h -27.07 c -2.5,3.328 -4.38,8.528 -8.75,25.399 -3.74,14.781 -8.53,17.07 -19.78,17.07 h -7.49 v -42.469 h -25.6 z m -51.22,-53.512 c 0,-49.969 40.6,-90.558 90.56,-90.558 49.97,0 90.57,40.589 90.57,90.558 0,49.969 -40.6,90.57 -90.57,90.57 -50.39,0 -90.56,-41.011 -90.56,-90.57 z m 90.56,-98.89 c -54.55,0 -98.88,44.339 -98.88,98.89 0,54.559 44.33,98.891 98.88,98.891 54.54,0 98.9,-44.332 98.9,-98.891 0,-54.961 -44.77,-98.89 -98.9,-98.89" id="path28" style="fill:#4868bb;fill-opacity:1;fill-rule:nonzero;stroke:none"></path><path d="m 2697.94,2246.52 c 0,-10.52 -8.47,-19.12 -18.82,-19.12 h -263.36 c -1.01,0 -1.97,0.14 -2.94,0.3 v -263.81 c 0,-10.52 -8.46,-19.13 -18.81,-19.13 h -263.36 c -1,0 -1.98,0.15 -2.94,0.31 v -263.82 c 0,-10.52 -8.47,-19.12 -18.81,-19.12 h -263.36 c -10.35,0 -18.81,8.6 -18.81,19.12 v 267.7 c 0,10.51 8.46,19.12 18.81,19.12 h 263.36 c 1,0 1.97,-0.15 2.94,-0.31 v 263.82 c 0,10.51 8.46,19.12 18.81,19.12 h 263.36 c 1.01,0 1.97,-0.15 2.94,-0.3 v 263.81 c 0,10.52 8.47,19.13 18.81,19.13 h 263.36 c 10.35,0 18.82,-8.61 18.82,-19.13 z M 2963,2638.61 c -11.08,85.2 -60.12,133.25 -145.79,151.67 -191.83,41.25 -925.03,37.92 -1109.76,3.34 -86.09,-16.12 -134.71,-66.48 -145.79,-151.68 -26.03,-200.16 -24.58,-912.63 0,-1084.96 13.87,-97.28 61.33,-137.48 145.79,-151.68 178.33,-29.97 913.12,-33.31 1109.76,-3.33 84.65,12.91 131.92,54.4 145.79,151.68 24.58,172.33 26.03,884.8 0,1084.96" id="path30" style="fill:#4868bb;fill-opacity:1;fill-rule:nonzero;stroke:none"></path></g></g></svg>